<svg width="25" height="25" viewBox="0 0 25 25" fill="none" xmlns="http://www.w3.org/2000/svg">
<path d="M22.7083 0H9.79165C8.41289 0 7.29165 1.12124 7.29165 2.5V5H4.375C2.99624 5 1.875 6.12124 1.875 7.5V22.9167C1.875 24.0654 2.80957 25 3.95835 25H17.7083C17.9383 25 18.125 24.8133 18.125 24.5833V23.0892L19.375 21.8392L20.7471 23.2112C20.8267 23.2908 20.9333 23.3333 21.0417 23.3333C21.0954 23.3333 21.1496 23.3229 21.2012 23.3016C21.3566 23.237 21.4583 23.085 21.4583 22.9166V20H22.7083C22.9383 20 23.125 19.8133 23.125 19.5833V16.25V0.41665C23.125 0.18667 22.9383 0 22.7083 0ZM8.125 2.5C8.125 1.58081 8.87251 0.83335 9.79165 0.83335H10.2083V15.8333H9.375C8.90415 15.8333 8.47417 15.9963 8.125 16.2608V2.5ZM2.70835 7.5C2.70835 6.58081 3.45586 5.83335 4.375 5.83335H4.79165V20.8333H3.95835C3.4875 20.8333 3.05752 20.9963 2.70835 21.2608V7.5ZM17.2916 22.9167V24.1667H3.95835C3.26919 24.1667 2.70835 23.6058 2.70835 22.9167C2.70835 22.2275 3.26919 21.6667 3.95835 21.6667H17.2917V22.9167H17.2916ZM17.2916 20.8333H5.625V5.83335H7.29165V17.9167C7.29165 19.0654 8.22622 20 9.375 20H17.2916V20.8333ZM20.625 21.9108L19.6696 20.9554C19.5883 20.8742 19.4816 20.8333 19.375 20.8333C19.2683 20.8333 19.1617 20.8742 19.0804 20.9554L18.125 21.9108V21.25V19.5833V18.3333H20.625V21.9108ZM22.2916 19.1667H21.4583V17.9167C21.4583 17.6867 21.2716 17.5 21.0417 17.5H17.7083C17.4783 17.5 17.2916 17.6867 17.2916 17.9167V19.1667H9.375C8.68584 19.1667 8.125 18.6058 8.125 17.9167C8.125 17.2275 8.68584 16.6667 9.375 16.6667H22.2916V19.1667ZM22.2916 15.8333H11.0416V0.83335H22.2916V15.8333Z" fill="#929292"/>
<path d="M21.0417 1.66666H12.2917C12.0617 1.66666 11.875 1.85333 11.875 2.08331V7.08331C11.875 7.31329 12.0617 7.49996 12.2917 7.49996H21.0417C21.2716 7.49996 21.4583 7.31329 21.4583 7.08331V2.08331C21.4584 1.85333 21.2717 1.66666 21.0417 1.66666ZM20.625 6.66666H12.7083V2.50001H20.625V6.66666Z" fill="#929292"/>
<path d="M19.7918 8.75H13.5418V9.58335H19.7918V8.75Z" fill="#929292"/>
<path d="M19.7918 10.4166H13.5418V11.25H19.7918V10.4166Z" fill="#929292"/>
<path d="M19.7915 14.1666H17.7082V15H19.7915V14.1666Z" fill="#929292"/>
</svg>
