<svg width="25" height="25" viewBox="0 0 25 25" fill="none" xmlns="http://www.w3.org/2000/svg">
<path d="M19.9226 12.4591V0H3.29266C1.49335 0 0.0211792 1.47217 0.0211792 3.27148V21.7285C0.0211792 23.5353 1.48588 25 3.29266 25H18.578C22.0778 25 24.994 22.1365 24.9788 18.6367C24.9656 15.5938 22.7961 13.0506 19.9226 12.4591ZM18.4604 12.3321C15.2295 12.4243 12.597 14.9471 12.3306 18.1322H5.93446V1.46216H18.4604V12.3321ZM3.27162 1.46216H4.4723V18.1322H3.45507C2.74027 18.1322 2.07596 18.352 1.52567 18.7271V3.20811C1.52567 2.24536 2.30887 1.46216 3.27162 1.46216ZM3.45507 23.5378C2.36786 23.5378 1.48334 22.6533 1.48334 21.5661C1.48334 20.4789 2.36786 19.5944 3.45507 19.5944H12.3765C12.438 20.0113 12.5404 20.4151 12.6794 20.8017H3.76874V22.2639H13.4328C13.7625 22.7397 14.1555 23.1686 14.5997 23.5378H3.45507ZM18.6434 23.5378C15.9563 23.5378 13.7702 21.3518 13.7702 18.6646C13.7702 15.9775 15.9563 13.7915 18.6434 13.7915C21.3305 13.7915 23.5166 15.9775 23.5166 18.6646C23.5166 21.3518 21.3306 23.5378 18.6434 23.5378Z" fill="#929292"/>
<path d="M19.3746 16.4366H17.9124V17.9335H16.4153V19.3957H17.9124V20.8927H19.3746V19.3957H20.8716V17.9335H19.3746V16.4366Z" fill="#929292"/>
<path d="M9.83484 4.30522H14.7284V5.76738H9.83484V4.30522Z" fill="#929292"/>
<path d="M8.18182 7.47954H16.3813V8.9417H8.18182V7.47954Z" fill="#929292"/>
</svg>
