<svg width="126" height="33" viewBox="0 0 126 33" fill="none" xmlns="http://www.w3.org/2000/svg">
<path d="M19.877 25H0.839844L1.0332 24.3496C2.16992 24.3496 2.99609 24.1328 3.51172 23.6992C4.03906 23.2539 4.52539 22.2637 4.9707 20.7285L9.40039 5.41797C9.64648 4.57422 9.76953 3.91211 9.76953 3.43164C9.76953 2.96289 9.59375 2.58789 9.24219 2.30664C8.89062 2.02539 8.19922 1.86133 7.16797 1.81445L7.36133 1.16406H18.8047L18.6113 1.81445C17.5098 1.83789 16.6836 2.08398 16.1328 2.55273C15.5938 3.02148 15.1133 3.97656 14.6914 5.41797L10.6484 19.4277C10.1328 21.209 9.875 22.293 9.875 22.6797C9.875 22.9141 10.0039 23.1367 10.2617 23.3477C10.5312 23.5469 10.959 23.6465 11.5449 23.6465C13.4902 23.6465 15.3652 23.2012 17.1699 22.3105C18.9863 21.4199 20.5215 20.0898 21.7754 18.3203H22.5137L19.877 25ZM32.0938 0.619141C32.8203 0.619141 33.4297 0.871094 33.9219 1.375C34.4258 1.87891 34.6777 2.48828 34.6777 3.20312C34.6777 3.91797 34.4258 4.52734 33.9219 5.03125C33.418 5.53516 32.8086 5.78711 32.0938 5.78711C31.3906 5.78711 30.7871 5.53516 30.2832 5.03125C29.7793 4.52734 29.5273 3.91797 29.5273 3.20312C29.5273 2.48828 29.7734 1.87891 30.2656 1.375C30.7695 0.871094 31.3789 0.619141 32.0938 0.619141ZM33.1836 8.70508L29.5801 21.2031C29.3809 21.918 29.2812 22.3867 29.2812 22.6094C29.2812 22.7383 29.334 22.8613 29.4395 22.9785C29.5449 23.084 29.6562 23.1367 29.7734 23.1367C29.9727 23.1367 30.1719 23.0488 30.3711 22.873C30.8984 22.4395 31.5312 21.6543 32.2695 20.5176L32.8672 20.8691C31.0977 23.9512 29.2168 25.4922 27.2246 25.4922C26.4629 25.4922 25.8535 25.2812 25.3965 24.8594C24.9512 24.4258 24.7285 23.8809 24.7285 23.2246C24.7285 22.791 24.8281 22.2402 25.0273 21.5723L27.4707 13.1699C27.7051 12.3613 27.8223 11.752 27.8223 11.3418C27.8223 11.084 27.7109 10.8555 27.4883 10.6562C27.2656 10.457 26.9609 10.3574 26.5742 10.3574C26.3984 10.3574 26.1875 10.3633 25.9414 10.375L26.1699 9.67188L32.1289 8.70508H33.1836ZM45.4004 0.619141L42.3594 11.2188C43.2852 10.2109 44.0586 9.54297 44.6797 9.21484C45.3008 8.875 45.9746 8.70508 46.7012 8.70508C48.1074 8.70508 49.1562 9.21484 49.8477 10.2344C50.5508 11.2422 50.9023 12.4082 50.9023 13.7324C50.9023 16.8965 49.7539 19.7207 47.457 22.2051C45.418 24.3965 43.0977 25.4922 40.4961 25.4922C38.5625 25.4922 36.5176 24.9238 34.3613 23.7871L39.7402 5.13672C39.998 4.25781 40.127 3.6543 40.127 3.32617C40.127 3.04492 40.0098 2.82227 39.7754 2.6582C39.4473 2.42383 38.9492 2.32422 38.2812 2.35938L38.4746 1.65625L44.3457 0.619141H45.4004ZM38.6504 23.9629C39.2012 24.3145 39.6992 24.4902 40.1445 24.4902C40.7656 24.4902 41.2871 24.3672 41.709 24.1211C42.377 23.7227 43.0742 23.002 43.8008 21.959C44.5391 20.916 45.1543 19.6562 45.6465 18.1797C46.1387 16.7031 46.3848 15.2324 46.3848 13.7676C46.3848 12.9355 46.1973 12.3027 45.8223 11.8691C45.4473 11.4355 45.0137 11.2188 44.5215 11.2188C43.7012 11.2188 42.9863 11.6172 42.377 12.4141C41.9668 12.9297 41.5215 14.0254 41.041 15.7012L38.6504 23.9629ZM57.5996 11.7637L57.1953 11.0254C58.9883 10.0176 60.1016 9.24414 60.5352 8.70508C60.875 8.30664 61.0449 7.89648 61.0449 7.47461C61.0449 7.01758 60.7402 6.51367 60.1309 5.96289C59.5332 5.40039 59.1348 4.92578 58.9355 4.53906C58.7832 4.24609 58.707 3.87109 58.707 3.41406C58.707 2.65234 58.9883 1.99609 59.5508 1.44531C60.125 0.894531 60.8164 0.619141 61.625 0.619141C62.4102 0.619141 63.0898 0.929688 63.6641 1.55078C64.25 2.17187 64.543 2.94531 64.543 3.87109C64.543 5.33594 63.9805 6.77734 62.8555 8.19531C61.7422 9.61328 59.9902 10.8027 57.5996 11.7637ZM72.541 8.70508L69.8867 18.584C72.0664 13.7676 73.707 10.8027 74.8086 9.68945C75.4531 9.0332 76.1328 8.70508 76.8477 8.70508C77.3398 8.70508 77.7383 8.88672 78.043 9.25C78.3477 9.60156 78.5 10.1055 78.5 10.7617C78.5 11.8984 78.2246 12.8535 77.6738 13.627C77.3223 14.1191 76.9297 14.3652 76.4961 14.3652C76.0273 14.3652 75.6758 14.1484 75.4414 13.7148C75.207 13.2812 75.043 13.0293 74.9492 12.959C74.8555 12.877 74.7559 12.8359 74.6504 12.8359C74.5332 12.8359 74.4102 12.8711 74.2812 12.9414C74.0234 13.082 73.6836 13.4277 73.2617 13.9785C72.8516 14.5176 72.3418 15.4258 71.7324 16.7031C71.123 17.9805 70.6484 19.0645 70.3086 19.9551C69.9688 20.834 69.4941 22.5156 68.8848 25H64.6309L67.5312 13.3457C67.7422 12.4785 67.8477 11.9043 67.8477 11.623C67.8477 11.3066 67.7891 11.0605 67.6719 10.8848C67.5664 10.709 67.4141 10.5801 67.2148 10.498C67.0273 10.416 66.6289 10.375 66.0195 10.375L66.1777 9.86523L71.4863 8.70508H72.541ZM95.2871 8.95117L91.877 20.6406L91.5254 22.0645C91.4902 22.2402 91.4727 22.3691 91.4727 22.4512C91.4727 22.5918 91.5195 22.7148 91.6133 22.8203C91.7188 22.9258 91.8242 22.9785 91.9297 22.9785C92.1758 22.9785 92.5156 22.791 92.9492 22.416C93.125 22.2637 93.5469 21.7246 94.2148 20.7988L94.8301 21.1152C93.998 22.6387 93.1074 23.752 92.1582 24.4551C91.2207 25.1465 90.207 25.4922 89.1172 25.4922C88.4492 25.4922 87.9395 25.3223 87.5879 24.9824C87.2363 24.6309 87.0605 24.1914 87.0605 23.6641C87.0605 23.207 87.248 22.3574 87.623 21.1152L88.0449 19.6914C86.6855 22.0234 85.3789 23.6758 84.125 24.6484C83.3984 25.2109 82.625 25.4922 81.8047 25.4922C80.7266 25.4922 79.9473 25.0527 79.4668 24.1738C78.9863 23.2832 78.7461 22.2812 78.7461 21.168C78.7461 19.5156 79.25 17.623 80.2578 15.4902C81.2656 13.3457 82.5898 11.623 84.2305 10.3223C85.5781 9.24414 86.8438 8.70508 88.0273 8.70508C88.6836 8.70508 89.2109 8.89844 89.6094 9.28516C90.0078 9.66016 90.3008 10.3516 90.4883 11.3594L91.1211 9.19727L95.2871 8.95117ZM89.6621 12.291C89.6621 11.3418 89.5156 10.6562 89.2227 10.2344C89.0117 9.94141 88.7246 9.79492 88.3613 9.79492C87.998 9.79492 87.623 9.9707 87.2363 10.3223C86.4512 11.0488 85.6016 12.5254 84.6875 14.752C83.7852 16.9668 83.334 18.8828 83.334 20.5C83.334 21.1211 83.4336 21.5723 83.6328 21.8535C83.8438 22.123 84.0723 22.2578 84.3184 22.2578C84.8457 22.2578 85.3789 21.9531 85.918 21.3438C86.6914 20.4766 87.3887 19.416 88.0098 18.1621C89.1113 15.959 89.6621 14.002 89.6621 12.291ZM104.568 8.70508L101.914 18.584C104.094 13.7676 105.734 10.8027 106.836 9.68945C107.48 9.0332 108.16 8.70508 108.875 8.70508C109.367 8.70508 109.766 8.88672 110.07 9.25C110.375 9.60156 110.527 10.1055 110.527 10.7617C110.527 11.8984 110.252 12.8535 109.701 13.627C109.35 14.1191 108.957 14.3652 108.523 14.3652C108.055 14.3652 107.703 14.1484 107.469 13.7148C107.234 13.2812 107.07 13.0293 106.977 12.959C106.883 12.877 106.783 12.8359 106.678 12.8359C106.561 12.8359 106.438 12.8711 106.309 12.9414C106.051 13.082 105.711 13.4277 105.289 13.9785C104.879 14.5176 104.369 15.4258 103.76 16.7031C103.15 17.9805 102.676 19.0645 102.336 19.9551C101.996 20.834 101.521 22.5156 100.912 25H96.6582L99.5586 13.3457C99.7695 12.4785 99.875 11.9043 99.875 11.623C99.875 11.3066 99.8164 11.0605 99.6992 10.8848C99.5938 10.709 99.4414 10.5801 99.2422 10.498C99.0547 10.416 98.6562 10.375 98.0469 10.375L98.2051 9.86523L103.514 8.70508H104.568ZM110.984 10.2871L116.398 8.70508C116.832 9.24414 117.137 9.75391 117.312 10.2344C117.629 11.0664 117.852 12.2148 117.98 13.6797C118.227 16.5625 118.396 19.6387 118.49 22.9082C119.744 21.2559 121.18 19.0703 122.797 16.3516C123.289 15.5312 123.535 14.7578 123.535 14.0312C123.535 13.5742 123.248 13.1406 122.674 12.7305C122.111 12.3203 121.76 12.0039 121.619 11.7812C121.479 11.5469 121.408 11.248 121.408 10.8848C121.408 10.2988 121.619 9.78906 122.041 9.35547C122.475 8.92188 122.996 8.70508 123.605 8.70508C124.25 8.70508 124.807 8.95117 125.275 9.44336C125.756 9.93555 125.996 10.5156 125.996 11.1836C125.996 11.9688 125.773 12.8828 125.328 13.9258C124.895 14.957 123.869 16.7324 122.252 19.252C120.178 22.4746 118.145 25.2637 116.152 27.6191C114.875 29.1191 113.844 30.1973 113.059 30.8535C112.273 31.5215 111.459 32.0488 110.615 32.4355C110.111 32.6582 109.613 32.7695 109.121 32.7695C108.453 32.7695 107.885 32.5352 107.416 32.0664C106.936 31.5977 106.695 31.041 106.695 30.3965C106.695 29.752 106.912 29.207 107.346 28.7617C107.768 28.3164 108.266 28.0938 108.84 28.0938C109.555 28.0938 110.211 28.4688 110.809 29.2188C111.207 29.7227 111.535 29.9746 111.793 29.9746C112.062 29.9746 112.326 29.8984 112.584 29.7461C112.936 29.5586 113.428 29.125 114.061 28.4453C114.131 26.9805 114.166 25.873 114.166 25.123C114.166 24.1152 114.119 22.6973 114.025 20.8691L113.727 14.1719C113.621 12.9414 113.357 12.0566 112.936 11.5176C112.607 11.1191 112.18 10.9199 111.652 10.9199C111.453 10.9199 111.23 10.9375 110.984 10.9727V10.2871Z" fill="black"/>
</svg>
